<?xml version="1.0" encoding="UTF-8" standalone="no"?>
<!-- Created with Inkscape (http://www.inkscape.org/) -->

<svg
   width="100"
   height="100"
   viewBox="0 0 100 100"
   version="1.1"
   id="svg1"
   xmlns="http://www.w3.org/2000/svg"
   xmlns:svg="http://www.w3.org/2000/svg">
  <defs
     id="defs1" />
  <g
     id="layer6"
     style="display:inline">
    <path
       d="M 78.8,65.6 C 74.4,62 68.8,59.6 63.2,58 59.2,56.8 54.8,56 50,56 c -4.4,0 -8.8,0.8 -13.2,2 -5.6,1.6 -11.2,4.4 -15.6,7.6 -2,1.6 -3.2,4 -3.2,6.4 V 88 H 82 V 72 c 0,-2.4 -1.2,-4.8 -3.2,-6.4 z"
       id="path1-2" />
    <path
       d="m 34.4,22.4 c 0.6,0 1.1,-0.2 1.4,-0.6 v 0 C 39.5,18.2 44.5,16 50,16 c 11,0 20,9 20,20 v 4.6 L 58.5,44.4 C 58,44.2 57.5,44 57,44 c -1.7,0 -3,1.3 -3,3 0,1.7 1.3,3 3,3 1.2,0 2.3,-0.7 2.8,-1.8 l 15.9,-5.3 c 0.8,-0.3 1.4,-1 1.4,-1.9 v -9 c 0,-1.1 -0.9,-2 -2,-2 H 73.3 C 70.6,19.7 61.2,12 50,12 c -6.5,0 -12.4,2.6 -16.8,6.8 -0.5,0.4 -0.8,0.9 -0.8,1.6 0,1.1 0.9,2 2,2 z"
       id="path2-7" />
    <path
       d="M 65.9,37.7 C 66,37.1 66,36.6 66,36 66,27.2 58.8,20 50,20 c -8.8,0 -16,7.2 -16,16 0,8.8 7.2,16 16,16 0.3,0 0.7,0 1,-0.1 V 47 47 c 0,-0.9 0.2,-1.8 0.6,-2.7 0.7,-1.4 1.9,-2.5 3.5,-3 z"
       id="path3-6" />
  </g>
</svg>
